<svg width="16" height="16" viewBox="0 0 16 16" fill="none" xmlns="http://www.w3.org/2000/svg">
<path d="M7.99998 2.95004C8.08887 2.95004 8.17221 2.96382 8.24998 2.99137C8.32776 3.01893 8.39998 3.06626 8.46665 3.13337L12.8667 7.53337C13 7.66671 13.0667 7.82493 13.0667 8.00804C13.0667 8.19115 13 8.3496 12.8667 8.48337C12.7333 8.61671 12.5778 8.68337 12.4 8.68337C12.2222 8.68337 12.0667 8.61671 11.9333 8.48337L8.66665 5.21671L8.66665 12.6834C8.66665 12.8723 8.60265 13.0278 8.47465 13.15C8.34665 13.2723 8.18843 13.3334 7.99998 13.3334C7.81109 13.3334 7.65265 13.2694 7.52465 13.1414C7.39665 13.0134 7.33287 12.8552 7.33332 12.6667L7.33332 5.21671L4.06665 8.48337C3.93332 8.61671 3.77776 8.68337 3.59998 8.68337C3.42221 8.68337 3.26665 8.61671 3.13332 8.48337C2.99998 8.35004 2.93332 8.1916 2.93332 8.00804C2.93332 7.82448 2.99998 7.66626 3.13332 7.53337L7.53332 3.13337C7.59999 3.06671 7.67221 3.01937 7.74998 2.99137C7.82776 2.96337 7.9111 2.9496 7.99998 2.95004Z" fill="#1EB564"/>
</svg>
