<svg width="34" height="35" viewBox="0 0 34 35" fill="none" xmlns="http://www.w3.org/2000/svg">
<g clip-path="url(#clip0_5_2076)">
<mask id="mask0_5_2076" style="mask-type:alpha" maskUnits="userSpaceOnUse" x="0" y="0" width="34" height="35">
<path d="M17 34.5C26.3888 34.5 34 26.8888 34 17.5C34 8.11116 26.3888 0.5 17 0.5C7.61116 0.5 0 8.11116 0 17.5C0 26.8888 7.61116 34.5 17 34.5Z" fill="white"/>
</mask>
<g mask="url(#mask0_5_2076)">
<path d="M38.0182 0.5H-3.94087C-4.87975 0.5 -5.64087 1.26112 -5.64087 2.2V32.8C-5.64087 33.7389 -4.87975 34.5 -3.94087 34.5H38.0182C38.9571 34.5 39.7182 33.7389 39.7182 32.8V2.2C39.7182 1.26112 38.9571 0.5 38.0182 0.5Z" fill="black"/>
<mask id="mask1_5_2076" style="mask-type:alpha" maskUnits="userSpaceOnUse" x="-6" y="0" width="46" height="35">
<path d="M38.0182 0.5H-3.94087C-4.87975 0.5 -5.64087 1.26112 -5.64087 2.2V32.8C-5.64087 33.7389 -4.87975 34.5 -3.94087 34.5H38.0182C38.9571 34.5 39.7182 33.7389 39.7182 32.8V2.2C39.7182 1.26112 38.9571 0.5 38.0182 0.5Z" fill="white"/>
</mask>
<g mask="url(#mask1_5_2076)">
<mask id="mask2_5_2076" style="mask-type:alpha" maskUnits="userSpaceOnUse" x="-6" y="0" width="46" height="35">
<path d="M39.7182 0.5H-5.64087V34.5H39.7182V0.5Z" fill="white"/>
</mask>
<g mask="url(#mask2_5_2076)">
<path d="M39.7182 0.5H-5.64087V34.5H39.7182V0.5Z" fill="#2E42A5"/>
<mask id="mask3_5_2076" style="mask-type:alpha" maskUnits="userSpaceOnUse" x="-6" y="0" width="46" height="35">
<path d="M39.7182 0.5H-5.64087V34.5H39.7182V0.5Z" fill="white"/>
</mask>
<g mask="url(#mask3_5_2076)">
<path d="M19.8736 0.5H-5.64087V20.3333H19.8736V0.5Z" fill="#2B409A"/>
<mask id="mask4_5_2076" style="mask-type:alpha" maskUnits="userSpaceOnUse" x="-6" y="0" width="26" height="21">
<path d="M19.8736 0.5H-5.64087V20.3333H19.8736V0.5Z" fill="white"/>
</mask>
<g mask="url(#mask4_5_2076)">
<path d="M-8.48181 18.9164L-2.86728 21.3774L20.0011 3.17572L22.9626 -0.481455L16.9587 -1.304L7.63122 6.53964L0.123579 11.8244L-8.48181 18.9164Z" fill="#F7FCFF"/>
<path d="M-7.71313 20.6407L-4.85279 22.0688L21.8992 -0.821251H17.8829L-7.71313 20.6407Z" fill="#F50100"/>
<path d="M22.7146 18.9164L17.1001 21.3774L-5.76828 3.17572L-8.72982 -0.481455L-2.72588 -1.304L6.60157 6.53964L14.1092 11.8244L22.7146 18.9164Z" fill="#F7FCFF"/>
<path d="M22.5231 20.154L19.6627 21.5822L8.27146 11.7817L4.8942 10.6867L-9.01473 -0.468853H-4.99848L8.90264 10.4219L12.5951 11.7349L22.5231 20.154Z" fill="#F50100"/>
<path d="M9.57508 -0.5625L9.57436 7.9375H20.9367V12.8958H9.57436L9.57508 21.3958H4.61393L4.6132 12.8958H-6.70398V7.9375H4.6132L4.61393 -0.5625H9.57508Z" fill="#F50100" stroke="#F7FCFF" stroke-width="1.5"/>
</g>
</g>
<mask id="mask5_5_2076" style="mask-type:alpha" maskUnits="userSpaceOnUse" x="-6" y="0" width="46" height="35">
<path d="M39.7182 0.5H-5.64087V34.5H39.7182V0.5Z" fill="white"/>
</mask>
<g mask="url(#mask5_5_2076)">
<path d="M7.11638 29.5417L5.27133 31.2459L5.45404 28.7417L2.97058 28.3625L5.04348 26.9439L3.79171 24.7669L6.19385 25.5022L7.11638 23.1667L8.03891 25.5022L10.4411 24.7669L9.18928 26.9439L11.2622 28.3625L8.77871 28.7417L8.96143 31.2459L7.11638 29.5417Z" fill="#F7FCFF"/>
<path d="M25.5435 18.9167L24.3135 20.0528L24.4353 18.3834L22.7797 18.1306L24.1616 17.1848L23.3271 15.7335L24.9285 16.2237L25.5435 14.6667L26.1585 16.2237L27.76 15.7335L26.9255 17.1848L28.3074 18.1306L26.6518 18.3834L26.7736 20.0528L25.5435 18.9167Z" fill="#F7FCFF"/>
<path d="M28.3785 7.58337L27.1485 8.71945L27.2703 7.04998L25.6146 6.79718L26.9966 5.85147L26.162 4.40015L27.7635 4.89033L28.3785 3.33337L28.9935 4.89033L30.5949 4.40015L29.7604 5.85147L31.1424 6.79718L29.4867 7.04998L29.6085 8.71945L28.3785 7.58337Z" fill="#F7FCFF"/>
<path d="M35.4658 13.25L34.2357 14.3861L34.3575 12.7166L32.7019 12.4638L34.0838 11.5181L33.2493 10.0668L34.8508 10.557L35.4658 9L36.0808 10.557L37.6822 10.0668L36.8477 11.5181L38.2296 12.4638L36.574 12.7166L36.6958 14.3861L35.4658 13.25Z" fill="#F7FCFF"/>
<path d="M29.796 31.6667L28.5659 32.8028L28.6877 31.1334L27.0321 30.8806L28.414 29.9348L27.5795 28.4835L29.181 28.9737L29.796 27.4167L30.411 28.9737L32.0124 28.4835L31.1779 29.9348L32.5598 30.8806L30.9042 31.1334L31.026 32.8028L29.796 31.6667Z" fill="#F7FCFF"/>
<path d="M34.7571 20.6875L33.5074 21.3442L33.7461 19.9533L32.735 18.9683L34.1323 18.7654L34.7571 17.5L35.382 18.7654L36.7793 18.9683L35.7682 19.9533L36.0069 21.3442L34.7571 20.6875Z" fill="#F7FCFF"/>
</g>
</g>
</g>
<mask id="mask6_5_2076" style="mask-type:alpha" maskUnits="userSpaceOnUse" x="-6" y="0" width="46" height="35">
<path d="M38.0182 0.5H-3.94087C-4.87975 0.5 -5.64087 1.26112 -5.64087 2.2V32.8C-5.64087 33.7389 -4.87975 34.5 -3.94087 34.5H38.0182C38.9571 34.5 39.7182 33.7389 39.7182 32.8V2.2C39.7182 1.26112 38.9571 0.5 38.0182 0.5Z" fill="white"/>
</mask>
<g mask="url(#mask6_5_2076)">
<path d="M37.3095 1.20837H-3.23213C-4.17101 1.20837 -4.93213 1.96949 -4.93213 2.90837V32.0917C-4.93213 33.0306 -4.17101 33.7917 -3.23213 33.7917H37.3095C38.2484 33.7917 39.0095 33.0306 39.0095 32.0917V2.90837C39.0095 1.96949 38.2484 1.20837 37.3095 1.20837Z" stroke="black" stroke-opacity="0.1"/>
</g>
</g>
</g>
<defs>
<clipPath id="clip0_5_2076">
<rect width="34" height="34" fill="white" transform="translate(0 0.5)"/>
</clipPath>
</defs>
</svg>
