<svg width="34" height="35" viewBox="0 0 34 35" fill="none" xmlns="http://www.w3.org/2000/svg">
<mask id="mask0_5_1617" style="mask-type:alpha" maskUnits="userSpaceOnUse" x="0" y="0" width="34" height="35">
<path d="M17 34.5C26.3888 34.5 34 26.8888 34 17.5C34 8.11116 26.3888 0.5 17 0.5C7.61116 0.5 0 8.11116 0 17.5C0 26.8888 7.61116 34.5 17 34.5Z" fill="white"/>
</mask>
<g mask="url(#mask0_5_1617)">
<mask id="mask1_5_1617" style="mask-type:alpha" maskUnits="userSpaceOnUse" x="-6" y="0" width="46" height="35">
<path d="M39.6667 0.5H-5.66663V34.5H39.6667V0.5Z" fill="white"/>
</mask>
<g mask="url(#mask1_5_1617)">
<path d="M5.66675 0.5H39.6667V34.5H5.66675V0.5Z" fill="#EF0000"/>
<path d="M-5.66663 0.5H11.3334V34.5H-5.66663V0.5Z" fill="#2F8D00"/>
<mask id="mask2_5_1617" style="mask-type:alpha" maskUnits="userSpaceOnUse" x="0" y="6" width="23" height="23">
<path d="M11.1985 28.5603C5.16279 28.5603 0.269897 23.6085 0.269897 17.5001C0.269897 11.3917 5.16279 6.43982 11.1985 6.43982C17.2342 6.43982 22.127 11.3917 22.127 17.5001C22.127 23.6085 17.2342 28.5603 11.1985 28.5603Z" fill="white"/>
</mask>
<g mask="url(#mask2_5_1617)">
<path d="M10.5239 6.16675H11.9406V9.99004H10.5239V6.16675Z" fill="#FFE017"/>
</g>
<mask id="mask3_5_1617" style="mask-type:alpha" maskUnits="userSpaceOnUse" x="0" y="6" width="23" height="23">
<path d="M11.1985 28.5603C5.16279 28.5603 0.269897 23.6085 0.269897 17.5001C0.269897 11.3917 5.16279 6.43982 11.1985 6.43982C17.2342 6.43982 22.127 11.3917 22.127 17.5001C22.127 23.6085 17.2342 28.5603 11.1985 28.5603Z" fill="white"/>
</mask>
<g mask="url(#mask3_5_1617)">
<path d="M10.5239 25.2832H11.9406V28.8334H10.5239V25.2832Z" fill="#FFE017"/>
</g>
<mask id="mask4_5_1617" style="mask-type:alpha" maskUnits="userSpaceOnUse" x="0" y="6" width="23" height="23">
<path d="M11.1985 28.5603C5.16279 28.5603 0.269897 23.6085 0.269897 17.5001C0.269897 11.3917 5.16279 6.43982 11.1985 6.43982C17.2342 6.43982 22.127 11.3917 22.127 17.5001C22.127 23.6085 17.2342 28.5603 11.1985 28.5603Z" fill="white"/>
</mask>
<g mask="url(#mask4_5_1617)">
<path d="M0.445514 18.0721L0.0494385 17.0559C4.42012 15.311 7.71891 14.1858 9.95723 13.6786C13.2412 12.9346 16.8496 12.3841 20.7825 12.0267L20.879 13.1147C16.9912 13.468 13.4291 14.0114 10.193 14.7446C8.02135 15.2367 4.76837 16.3463 0.445514 18.0721Z" fill="#FFE017"/>
</g>
<mask id="mask5_5_1617" style="mask-type:alpha" maskUnits="userSpaceOnUse" x="0" y="6" width="23" height="23">
<path d="M11.1985 28.5603C5.16279 28.5603 0.269897 23.6085 0.269897 17.5001C0.269897 11.3917 5.16279 6.43982 11.1985 6.43982C17.2342 6.43982 22.127 11.3917 22.127 17.5001C22.127 23.6085 17.2342 28.5603 11.1985 28.5603Z" fill="white"/>
</mask>
<g mask="url(#mask5_5_1617)">
<path d="M21.4496 11.3573L21.1282 12.4001C17.8249 11.3573 15.1341 10.909 13.0657 11.0479L12.9943 9.95789C15.215 9.80882 18.0301 10.2778 21.4496 11.3573Z" fill="#FFE017"/>
</g>
<mask id="mask6_5_1617" style="mask-type:alpha" maskUnits="userSpaceOnUse" x="0" y="6" width="23" height="23">
<path d="M11.1985 28.5603C5.16279 28.5603 0.269897 23.6085 0.269897 17.5001C0.269897 11.3917 5.16279 6.43982 11.1985 6.43982C17.2342 6.43982 22.127 11.3917 22.127 17.5001C22.127 23.6085 17.2342 28.5603 11.1985 28.5603Z" fill="white"/>
</mask>
<g mask="url(#mask6_5_1617)">
<path d="M22.5925 17.1881L21.9819 18.0889C20.298 16.9197 18.2233 16.3325 15.7439 16.3325V15.2401C18.4319 15.2401 20.7194 15.8876 22.5925 17.1881Z" fill="#FFE017"/>
</g>
<mask id="mask7_5_1617" style="mask-type:alpha" maskUnits="userSpaceOnUse" x="0" y="6" width="23" height="23">
<path d="M11.1985 28.5603C5.16279 28.5603 0.269897 23.6085 0.269897 17.5001C0.269897 11.3917 5.16279 6.43982 11.1985 6.43982C17.2342 6.43982 22.127 11.3917 22.127 17.5001C22.127 23.6085 17.2342 28.5603 11.1985 28.5603Z" fill="white"/>
</mask>
<g mask="url(#mask7_5_1617)">
<path d="M21.6779 17.515L21.9569 18.5702C18.3265 19.5536 14.9181 20.1115 11.7314 20.2429C8.52271 20.3752 4.78291 19.8153 0.508789 18.5674L0.807966 17.5178C4.97821 18.7354 8.60578 19.2785 11.6875 19.1514C14.7911 19.0235 18.1214 18.4784 21.6779 17.515Z" fill="#FFE017"/>
</g>
<mask id="mask8_5_1617" style="mask-type:alpha" maskUnits="userSpaceOnUse" x="0" y="6" width="23" height="23">
<path d="M11.1985 28.5603C5.16279 28.5603 0.269897 23.6085 0.269897 17.5001C0.269897 11.3917 5.16279 6.43982 11.1985 6.43982C17.2342 6.43982 22.127 11.3917 22.127 17.5001C22.127 23.6085 17.2342 28.5603 11.1985 28.5603Z" fill="white"/>
</mask>
<g mask="url(#mask8_5_1617)">
<path d="M21.2666 22.6509L19.5605 24.4C16.3182 21.1607 13.4637 18.8445 11.0146 17.4528C8.52365 16.0374 5.27525 14.6001 1.27441 13.1467L2.09487 10.8334C6.2137 12.3296 9.58159 13.8198 12.2036 15.3097C14.8674 16.8235 17.8826 19.27 21.2666 22.6509Z" fill="#FFE017"/>
</g>
<mask id="mask9_5_1617" style="mask-type:alpha" maskUnits="userSpaceOnUse" x="0" y="6" width="23" height="23">
<path d="M11.1985 28.5603C5.16279 28.5603 0.269897 23.6085 0.269897 17.5001C0.269897 11.3917 5.16279 6.43982 11.1985 6.43982C17.2342 6.43982 22.127 11.3917 22.127 17.5001C22.127 23.6085 17.2342 28.5603 11.1985 28.5603Z" fill="white"/>
</mask>
<g mask="url(#mask9_5_1617)">
<path d="M2.06597 23.6417L1.42017 22.7664C1.51035 22.6983 1.67127 22.5846 1.89298 22.4406C2.25904 22.2028 2.66553 21.9653 3.10289 21.7435C4.30749 21.1324 5.51582 20.7509 6.6683 20.7158C6.72467 20.7141 6.78079 20.7133 6.83668 20.7133V21.8056C6.79166 21.8056 6.74634 21.8063 6.70072 21.8077C5.7295 21.8372 4.66294 22.174 3.58656 22.72C3.18536 22.9236 2.81154 23.1419 2.47605 23.3598C2.35928 23.4357 2.25595 23.5059 2.16742 23.5684C2.1158 23.6049 2.08154 23.6299 2.06597 23.6417Z" fill="#FFE017"/>
</g>
<mask id="mask10_5_1617" style="mask-type:alpha" maskUnits="userSpaceOnUse" x="0" y="6" width="23" height="23">
<path d="M11.1985 28.5603C5.16279 28.5603 0.269897 23.6085 0.269897 17.5001C0.269897 11.3917 5.16279 6.43982 11.1985 6.43982C17.2342 6.43982 22.127 11.3917 22.127 17.5001C22.127 23.6085 17.2342 28.5603 11.1985 28.5603Z" fill="white"/>
</mask>
<g mask="url(#mask10_5_1617)">
<path d="M2.56726 24.0204L2.83908 22.9632C6.43758 23.9109 9.21182 24.3831 11.148 24.3831C13.0769 24.3831 15.9479 23.8261 19.7423 22.7081L20.044 23.757C16.1598 24.9013 13.2007 25.4755 11.148 25.4755C9.10246 25.4755 6.24684 24.9894 2.56726 24.0204Z" fill="#FFE017"/>
</g>
<mask id="mask11_5_1617" style="mask-type:alpha" maskUnits="userSpaceOnUse" x="0" y="6" width="23" height="23">
<path d="M11.1985 28.5603C5.16279 28.5603 0.269897 23.6085 0.269897 17.5001C0.269897 11.3917 5.16279 6.43982 11.1985 6.43982C17.2342 6.43982 22.127 11.3917 22.127 17.5001C22.127 23.6085 17.2342 28.5603 11.1985 28.5603Z" fill="white"/>
</mask>
<g mask="url(#mask11_5_1617)">
<path d="M1.16516 14.2338L2.87519 12.4885L5.37889 15.0012L3.66887 16.7464L1.16516 14.2338Z" fill="#FFE017"/>
</g>
<mask id="mask12_5_1617" style="mask-type:alpha" maskUnits="userSpaceOnUse" x="0" y="6" width="23" height="23">
<path d="M11.1985 28.5603C5.16279 28.5603 0.269897 23.6085 0.269897 17.5001C0.269897 11.3917 5.16279 6.43982 11.1985 6.43982C17.2342 6.43982 22.127 11.3917 22.127 17.5001C22.127 23.6085 17.2342 28.5603 11.1985 28.5603Z" fill="white"/>
</mask>
<g mask="url(#mask12_5_1617)">
<path d="M15.351 22.9511L16.6229 20.8573L20.5947 23.3286L19.3228 25.4224L15.351 22.9511Z" fill="#FFE017"/>
</g>
<path d="M11.1985 6.43982C17.2342 6.43982 22.127 11.3917 22.127 17.5001C22.127 23.6085 17.2342 28.5603 11.1985 28.5603C5.16279 28.5603 0.269897 23.6085 0.269897 17.5001C0.269897 11.3917 5.16279 6.43982 11.1985 6.43982ZM11.3334 8.07837C6.11737 8.07837 1.88895 12.3577 1.88895 17.6366C1.88895 22.9155 6.11737 27.1948 11.3334 27.1948C16.5494 27.1948 20.7778 22.9155 20.7778 17.6366C20.7778 12.3577 16.5494 8.07837 11.3334 8.07837Z" fill="#F9E813"/>
<path d="M5.18042 10.6792V19.5485C5.76428 23.0591 7.73127 24.8145 11.0814 24.8145C14.4315 24.8145 16.3985 23.0591 16.9824 19.5485V10.6792H5.18042Z" fill="white"/>
<path d="M4.37085 9.85986H17.7918V19.6169L17.7806 19.6845C17.1323 23.5827 14.8339 25.6337 11.0813 25.6337C7.32875 25.6337 5.0304 23.5827 4.38208 19.6845L4.37085 19.6169V9.85986Z" fill="#C51918"/>
<path d="M7.44067 12.8402H14.7219V19.1315C14.3617 21.2974 13.1482 22.3803 11.0813 22.3803C9.01443 22.3803 7.80089 21.2974 7.44067 19.1315V12.8402Z" fill="#F7FCFF"/>
<path d="M5.66675 10.5361H6.69084V11.2189H5.66675V10.5361Z" fill="#F9E813"/>
<path d="M5.12708 10.8092H7.01596V11.1506H5.12708V10.8092Z" fill="#060101"/>
<path d="M5.12708 11.0823H6.15117V11.4236H5.12708V11.0823Z" fill="#F9E813"/>
<path d="M6.20642 11.0823H7.23052V11.4236H6.20642V11.0823Z" fill="#F9E813"/>
<path d="M5.12708 11.9016H5.80981V12.9257H5.12708V11.9016Z" fill="#F9E813"/>
<path d="M6.47632 11.9016H7.15905V12.9257H6.47632V11.9016Z" fill="#F9E813"/>
<path d="M5.93665 11.9016H6.27801V12.9257H5.93665V11.9016Z" fill="#F9E813"/>
<path d="M5.12708 11.6285H7.01596V11.9699H5.12708V11.6285Z" fill="#060101"/>
<path d="M5.12708 12.4478H7.01596V12.7891H5.12708V12.4478Z" fill="#060101"/>
<path d="M5.39697 11.3555H5.73834V11.6968H5.39697V11.3555Z" fill="#F9E813"/>
<path d="M6.47632 11.3555H6.81768V11.6968H6.47632V11.3555Z" fill="#F9E813"/>
<path d="M5.93665 11.0823H6.27801V11.765H5.93665V11.0823Z" fill="#F9E813"/>
<path d="M10.7937 10.5361H11.8178V11.2189H10.7937V10.5361Z" fill="#F9E813"/>
<path d="M10.254 10.8092H12.1429V11.1506H10.254V10.8092Z" fill="#060101"/>
<path d="M10.254 11.0823H11.2781V11.4236H10.254V11.0823Z" fill="#F9E813"/>
<path d="M11.3334 11.0823H12.3575V11.4236H11.3334V11.0823Z" fill="#F9E813"/>
<path d="M10.254 11.9016H10.9368V12.9257H10.254V11.9016Z" fill="#F9E813"/>
<path d="M11.6033 11.9016H12.286V12.9257H11.6033V11.9016Z" fill="#F9E813"/>
<path d="M11.0636 11.9016H11.405V12.9257H11.0636V11.9016Z" fill="#F9E813"/>
<path d="M10.254 11.6285H12.1429V11.9699H10.254V11.6285Z" fill="#060101"/>
<path d="M10.254 12.4478H12.1429V12.7891H10.254V12.4478Z" fill="#060101"/>
<path d="M10.5239 11.3555H10.8653V11.6968H10.5239V11.3555Z" fill="#F9E813"/>
<path d="M11.6033 11.3555H11.9446V11.6968H11.6033V11.3555Z" fill="#F9E813"/>
<path d="M11.0636 11.0823H11.405V11.765H11.0636V11.0823Z" fill="#F9E813"/>
<path d="M15.6509 10.5361H16.675V11.2189H15.6509V10.5361Z" fill="#F9E813"/>
<path d="M15.1112 10.8092H17.0001V11.1506H15.1112V10.8092Z" fill="#060101"/>
<path d="M15.1112 11.0823H16.1353V11.4236H15.1112V11.0823Z" fill="#F9E813"/>
<path d="M16.1906 11.0823H17.2146V11.4236H16.1906V11.0823Z" fill="#F9E813"/>
<path d="M15.1112 11.9016H15.7939V12.9257H15.1112V11.9016Z" fill="#F9E813"/>
<path d="M16.4604 11.9016H17.1432V12.9257H16.4604V11.9016Z" fill="#F9E813"/>
<path d="M15.9208 11.9016H16.2621V12.9257H15.9208V11.9016Z" fill="#F9E813"/>
<path d="M15.1112 11.6285H17.0001V11.9699H15.1112V11.6285Z" fill="#060101"/>
<path d="M15.1112 12.4478H17.0001V12.7891H15.1112V12.4478Z" fill="#060101"/>
<path d="M15.3811 11.3555H15.7225V11.6968H15.3811V11.3555Z" fill="#F9E813"/>
<path d="M16.4604 11.3555H16.8018V11.6968H16.4604V11.3555Z" fill="#F9E813"/>
<path d="M15.9208 11.0823H16.2621V11.765H15.9208V11.0823Z" fill="#F9E813"/>
<path d="M15.6509 15.4518H16.675V16.1345H15.6509V15.4518Z" fill="#F9E813"/>
<path d="M15.1112 15.7249H17.0001V16.0662H15.1112V15.7249Z" fill="#060101"/>
<path d="M15.1112 15.9979H16.1353V16.3393H15.1112V15.9979Z" fill="#F9E813"/>
<path d="M16.1906 15.9979H17.2146V16.3393H16.1906V15.9979Z" fill="#F9E813"/>
<path d="M15.1112 16.8173H15.7939V17.8414H15.1112V16.8173Z" fill="#F9E813"/>
<path d="M16.4604 16.8173H17.1432V17.8414H16.4604V16.8173Z" fill="#F9E813"/>
<path d="M15.9208 16.8173H16.2621V17.8414H15.9208V16.8173Z" fill="#F9E813"/>
<path d="M15.1112 16.5442H17.0001V16.8856H15.1112V16.5442Z" fill="#060101"/>
<path d="M15.1112 17.3634H17.0001V17.7048H15.1112V17.3634Z" fill="#060101"/>
<path d="M15.3811 16.2711H15.7225V16.6125H15.3811V16.2711Z" fill="#F9E813"/>
<path d="M16.4604 16.2711H16.8018V16.6125H16.4604V16.2711Z" fill="#F9E813"/>
<path d="M15.9208 15.9979H16.2621V16.6807H15.9208V15.9979Z" fill="#F9E813"/>
<path d="M5.66675 15.4518H6.69084V16.1345H5.66675V15.4518Z" fill="#F9E813"/>
<path d="M5.12708 15.7249H7.01596V16.0662H5.12708V15.7249Z" fill="#060101"/>
<path d="M5.12708 15.9979H6.15117V16.3393H5.12708V15.9979Z" fill="#F9E813"/>
<path d="M6.20642 15.9979H7.23052V16.3393H6.20642V15.9979Z" fill="#F9E813"/>
<path d="M5.12708 16.8173H5.80981V17.8414H5.12708V16.8173Z" fill="#F9E813"/>
<path d="M6.47632 16.8173H7.15905V17.8414H6.47632V16.8173Z" fill="#F9E813"/>
<path d="M5.93665 16.8173H6.27801V17.8414H5.93665V16.8173Z" fill="#F9E813"/>
<path d="M5.12708 16.5442H7.01596V16.8856H5.12708V16.5442Z" fill="#060101"/>
<path d="M5.12708 17.3634H7.01596V17.7048H5.12708V17.3634Z" fill="#060101"/>
<path d="M5.39697 16.2711H5.73834V16.6125H5.39697V16.2711Z" fill="#F9E813"/>
<path d="M6.47632 16.2711H6.81768V16.6125H6.47632V16.2711Z" fill="#F9E813"/>
<path d="M5.93665 15.9979H6.27801V16.6807H5.93665V15.9979Z" fill="#F9E813"/>
<path d="M6.32373 21.6139L6.98201 20.8294L7.50501 21.2682L6.84673 22.0527L6.32373 21.6139Z" fill="#F9E813"/>
<path d="M6.18604 22.2029L7.40019 20.7559L7.66169 20.9753L6.44754 22.4223L6.18604 22.2029Z" fill="#060101"/>
<path d="M6.39526 22.3784L7.05354 21.5939L7.31504 21.8133L6.65676 22.5978L6.39526 22.3784Z" fill="#F9E813"/>
<path d="M7.08899 21.5516L7.74727 20.7671L8.00877 20.9866L7.35049 21.7711L7.08899 21.5516Z" fill="#F9E813"/>
<path d="M7.02283 22.905L7.46168 22.382L8.24618 23.0403L7.80733 23.5633L7.02283 22.905Z" fill="#F9E813"/>
<path d="M7.89001 21.8715L8.32887 21.3485L9.11337 22.0067L8.67452 22.5297L7.89001 21.8715Z" fill="#F9E813"/>
<path d="M7.54321 22.2849L7.76264 22.0234L8.54714 22.6817L8.32772 22.9432L7.54321 22.2849Z" fill="#F9E813"/>
<path d="M6.8136 22.7295L8.02775 21.2825L8.28925 21.5019L7.0751 22.9489L6.8136 22.7295Z" fill="#060101"/>
<path d="M7.44116 23.2561L8.65532 21.8091L8.91682 22.0286L7.70266 23.4755L7.44116 23.2561Z" fill="#060101"/>
<path d="M6.77783 22.3473L6.99726 22.0858L7.25876 22.3052L7.03933 22.5667L6.77783 22.3473Z" fill="#F9E813"/>
<path d="M7.47168 21.5204L7.69111 21.2589L7.95261 21.4783L7.73318 21.7398L7.47168 21.5204Z" fill="#F9E813"/>
<path d="M6.91553 21.7583L7.13495 21.4968L7.65795 21.9357L7.43853 22.1972L6.91553 21.7583Z" fill="#F9E813"/>
<path d="M15.553 20.9938L16.2113 21.7783L15.6883 22.2171L15.03 21.4326L15.553 20.9938Z" fill="#F9E813"/>
<path d="M14.9968 20.7559L16.211 22.2028L15.9495 22.4223L14.7353 20.9753L14.9968 20.7559Z" fill="#060101"/>
<path d="M14.7876 20.9314L15.4459 21.7159L15.1844 21.9353L14.5261 21.1508L14.7876 20.9314Z" fill="#F9E813"/>
<path d="M15.4814 21.7583L16.1397 22.5428L15.8782 22.7622L15.2199 21.9777L15.4814 21.7583Z" fill="#F9E813"/>
<path d="M14.16 21.458L14.5989 21.981L13.8144 22.6393L13.3755 22.1163L14.16 21.458Z" fill="#F9E813"/>
<path d="M15.0273 22.4916L15.4662 23.0146L14.6817 23.6729L14.2428 23.1499L15.0273 22.4916Z" fill="#F9E813"/>
<path d="M14.6804 22.0781L14.8998 22.3396L14.1153 22.9979L13.8959 22.7364L14.6804 22.0781Z" fill="#F9E813"/>
<path d="M14.3693 21.2825L15.5834 22.7294L15.3219 22.9489L14.1078 21.5019L14.3693 21.2825Z" fill="#060101"/>
<path d="M13.7417 21.8091L14.9559 23.2561L14.6944 23.4755L13.4802 22.0285L13.7417 21.8091Z" fill="#060101"/>
<path d="M14.752 21.3136L14.9714 21.5751L14.7099 21.7945L14.4905 21.533L14.752 21.3136Z" fill="#F9E813"/>
<path d="M15.4457 22.1405L15.6651 22.402L15.4036 22.6214L15.1842 22.3599L15.4457 22.1405Z" fill="#F9E813"/>
<path d="M15.308 21.5515L15.5274 21.813L15.0044 22.2519L14.785 21.9904L15.308 21.5515Z" fill="#F9E813"/>
<path d="M12.1245 13.5402V14.9022C12.032 15.3712 11.7202 15.6056 11.1893 15.6056C10.6583 15.6056 10.3466 15.3712 10.254 14.9022V13.5402H12.1245ZM10.7937 14.9056C10.6447 14.9056 10.5239 15.0279 10.5239 15.1787C10.5239 15.3295 10.6447 15.4518 10.7937 15.4518C10.9427 15.4518 11.0636 15.3295 11.0636 15.1787C11.0636 15.0279 10.9427 14.9056 10.7937 14.9056ZM11.6032 14.9056C11.4542 14.9056 11.3334 15.0279 11.3334 15.1787C11.3334 15.3295 11.4542 15.4518 11.6032 15.4518C11.7523 15.4518 11.8731 15.3295 11.8731 15.1787C11.8731 15.0279 11.7523 14.9056 11.6032 14.9056ZM11.1985 14.3594C11.0494 14.3594 10.9286 14.4817 10.9286 14.6325C10.9286 14.7834 11.0494 14.9056 11.1985 14.9056C11.3475 14.9056 11.4683 14.7834 11.4683 14.6325C11.4683 14.4817 11.3475 14.3594 11.1985 14.3594ZM10.7937 13.8133C10.6447 13.8133 10.5239 13.9355 10.5239 14.0863C10.5239 14.2372 10.6447 14.3594 10.7937 14.3594C10.9427 14.3594 11.0636 14.2372 11.0636 14.0863C11.0636 13.9355 10.9427 13.8133 10.7937 13.8133ZM11.6032 13.8133C11.4542 13.8133 11.3334 13.9355 11.3334 14.0863C11.3334 14.2372 11.4542 14.3594 11.6032 14.3594C11.7523 14.3594 11.8731 14.2372 11.8731 14.0863C11.8731 13.9355 11.7523 13.8133 11.6032 13.8133Z" fill="#013399"/>
<path d="M12.1245 16.5442V17.9063C12.032 18.3752 11.7202 18.6097 11.1893 18.6097C10.6583 18.6097 10.3466 18.3752 10.254 17.9063V16.5442H12.1245ZM10.7937 17.9097C10.6447 17.9097 10.5239 18.0319 10.5239 18.1827C10.5239 18.3336 10.6447 18.4558 10.7937 18.4558C10.9427 18.4558 11.0636 18.3336 11.0636 18.1827C11.0636 18.0319 10.9427 17.9097 10.7937 17.9097ZM11.6032 17.9097C11.4542 17.9097 11.3334 18.0319 11.3334 18.1827C11.3334 18.3336 11.4542 18.4558 11.6032 18.4558C11.7523 18.4558 11.8731 18.3336 11.8731 18.1827C11.8731 18.0319 11.7523 17.9097 11.6032 17.9097ZM11.1985 17.3635C11.0494 17.3635 10.9286 17.4857 10.9286 17.6366C10.9286 17.7874 11.0494 17.9097 11.1985 17.9097C11.3475 17.9097 11.4683 17.7874 11.4683 17.6366C11.4683 17.4857 11.3475 17.3635 11.1985 17.3635ZM10.7937 16.8173C10.6447 16.8173 10.5239 16.9395 10.5239 17.0904C10.5239 17.2412 10.6447 17.3635 10.7937 17.3635C10.9427 17.3635 11.0636 17.2412 11.0636 17.0904C11.0636 16.9395 10.9427 16.8173 10.7937 16.8173ZM11.6032 16.8173C11.4542 16.8173 11.3334 16.9395 11.3334 17.0904C11.3334 17.2412 11.4542 17.3635 11.6032 17.3635C11.7523 17.3635 11.8731 17.2412 11.8731 17.0904C11.8731 16.9395 11.7523 16.8173 11.6032 16.8173Z" fill="#013399"/>
<path d="M14.5531 16.5442V17.9063C14.4606 18.3752 14.1488 18.6097 13.6179 18.6097C13.0869 18.6097 12.7752 18.3752 12.6826 17.9063V16.5442H14.5531ZM13.2223 17.9097C13.0733 17.9097 12.9525 18.0319 12.9525 18.1827C12.9525 18.3336 13.0733 18.4558 13.2223 18.4558C13.3713 18.4558 13.4921 18.3336 13.4921 18.1827C13.4921 18.0319 13.3713 17.9097 13.2223 17.9097ZM14.0318 17.9097C13.8828 17.9097 13.762 18.0319 13.762 18.1827C13.762 18.3336 13.8828 18.4558 14.0318 18.4558C14.1809 18.4558 14.3017 18.3336 14.3017 18.1827C14.3017 18.0319 14.1809 17.9097 14.0318 17.9097ZM13.6271 17.3635C13.478 17.3635 13.3572 17.4857 13.3572 17.6366C13.3572 17.7874 13.478 17.9097 13.6271 17.9097C13.7761 17.9097 13.8969 17.7874 13.8969 17.6366C13.8969 17.4857 13.7761 17.3635 13.6271 17.3635ZM13.2223 16.8173C13.0733 16.8173 12.9525 16.9395 12.9525 17.0904C12.9525 17.2412 13.0733 17.3635 13.2223 17.3635C13.3713 17.3635 13.4921 17.2412 13.4921 17.0904C13.4921 16.9395 13.3713 16.8173 13.2223 16.8173ZM14.0318 16.8173C13.8828 16.8173 13.762 16.9395 13.762 17.0904C13.762 17.2412 13.8828 17.3635 14.0318 17.3635C14.1809 17.3635 14.3017 17.2412 14.3017 17.0904C14.3017 16.9395 14.1809 16.8173 14.0318 16.8173Z" fill="#013399"/>
<path d="M9.69591 16.5442V17.9063C9.60338 18.3752 9.29163 18.6097 8.76067 18.6097C8.22972 18.6097 7.91797 18.3752 7.82544 17.9063V16.5442H9.69591ZM8.36512 17.9097C8.21609 17.9097 8.09528 18.0319 8.09528 18.1827C8.09528 18.3336 8.21609 18.4558 8.36512 18.4558C8.51415 18.4558 8.63496 18.3336 8.63496 18.1827C8.63496 18.0319 8.51415 17.9097 8.36512 17.9097ZM9.17465 17.9097C9.02562 17.9097 8.9048 18.0319 8.9048 18.1827C8.9048 18.3336 9.02562 18.4558 9.17465 18.4558C9.32367 18.4558 9.44449 18.3336 9.44449 18.1827C9.44449 18.0319 9.32367 17.9097 9.17465 17.9097ZM8.76988 17.3635C8.62085 17.3635 8.50004 17.4857 8.50004 17.6366C8.50004 17.7874 8.62085 17.9097 8.76988 17.9097C8.91891 17.9097 9.03973 17.7874 9.03973 17.6366C9.03973 17.4857 8.91891 17.3635 8.76988 17.3635ZM8.36512 16.8173C8.21609 16.8173 8.09528 16.9395 8.09528 17.0904C8.09528 17.2412 8.21609 17.3635 8.36512 17.3635C8.51415 17.3635 8.63496 17.2412 8.63496 17.0904C8.63496 16.9395 8.51415 16.8173 8.36512 16.8173ZM9.17465 16.8173C9.02562 16.8173 8.9048 16.9395 8.9048 17.0904C8.9048 17.2412 9.02562 17.3635 9.17465 17.3635C9.32367 17.3635 9.44449 17.2412 9.44449 17.0904C9.44449 16.9395 9.32367 16.8173 9.17465 16.8173Z" fill="#013399"/>
<path d="M12.1245 19.5482V20.9103C12.032 21.3792 11.7202 21.6137 11.1893 21.6137C10.6583 21.6137 10.3466 21.3792 10.254 20.9103V19.5482H12.1245ZM10.7937 20.9137C10.6447 20.9137 10.5239 21.0359 10.5239 21.1868C10.5239 21.3376 10.6447 21.4599 10.7937 21.4599C10.9427 21.4599 11.0636 21.3376 11.0636 21.1868C11.0636 21.0359 10.9427 20.9137 10.7937 20.9137ZM11.6032 20.9137C11.4542 20.9137 11.3334 21.0359 11.3334 21.1868C11.3334 21.3376 11.4542 21.4599 11.6032 21.4599C11.7523 21.4599 11.8731 21.3376 11.8731 21.1868C11.8731 21.0359 11.7523 20.9137 11.6032 20.9137ZM11.1985 20.3675C11.0494 20.3675 10.9286 20.4898 10.9286 20.6406C10.9286 20.7914 11.0494 20.9137 11.1985 20.9137C11.3475 20.9137 11.4683 20.7914 11.4683 20.6406C11.4683 20.4898 11.3475 20.3675 11.1985 20.3675ZM10.7937 19.8213C10.6447 19.8213 10.5239 19.9436 10.5239 20.0944C10.5239 20.2452 10.6447 20.3675 10.7937 20.3675C10.9427 20.3675 11.0636 20.2452 11.0636 20.0944C11.0636 19.9436 10.9427 19.8213 10.7937 19.8213ZM11.6032 19.8213C11.4542 19.8213 11.3334 19.9436 11.3334 20.0944C11.3334 20.2452 11.4542 20.3675 11.6032 20.3675C11.7523 20.3675 11.8731 20.2452 11.8731 20.0944C11.8731 19.9436 11.7523 19.8213 11.6032 19.8213Z" fill="#013399"/>
</g>
</g>
<mask id="mask13_5_1617" style="mask-type:alpha" maskUnits="userSpaceOnUse" x="0" y="0" width="34" height="35">
<path d="M17 34.5C26.3888 34.5 34 26.8888 34 17.5C34 8.11116 26.3888 0.5 17 0.5C7.61116 0.5 0 8.11116 0 17.5C0 26.8888 7.61116 34.5 17 34.5Z" fill="white"/>
</mask>
<g mask="url(#mask13_5_1617)">
<path d="M37.9667 0.5H-3.96663C-4.90551 0.5 -5.66663 1.26112 -5.66663 2.2V32.8C-5.66663 33.7389 -4.90551 34.5 -3.96663 34.5H37.9667C38.9056 34.5 39.6667 33.7389 39.6667 32.8V2.2C39.6667 1.26112 38.9056 0.5 37.9667 0.5Z" fill="black"/>
<mask id="mask14_5_1617" style="mask-type:alpha" maskUnits="userSpaceOnUse" x="-6" y="0" width="46" height="35">
<path d="M37.9667 0.5H-3.96663C-4.90551 0.5 -5.66663 1.26112 -5.66663 2.2V32.8C-5.66663 33.7389 -4.90551 34.5 -3.96663 34.5H37.9667C38.9056 34.5 39.6667 33.7389 39.6667 32.8V2.2C39.6667 1.26112 38.9056 0.5 37.9667 0.5Z" fill="white"/>
</mask>
<g mask="url(#mask14_5_1617)">
<mask id="mask15_5_1617" style="mask-type:alpha" maskUnits="userSpaceOnUse" x="-6" y="0" width="46" height="35">
<path d="M39.6667 0.5H-5.66663V34.5H39.6667V0.5Z" fill="white"/>
</mask>
<g mask="url(#mask15_5_1617)">
<path d="M39.6667 0.5H-5.66663V34.5H39.6667V0.5Z" fill="#009933"/>
<mask id="mask16_5_1617" style="mask-type:alpha" maskUnits="userSpaceOnUse" x="-6" y="0" width="46" height="35">
<path d="M39.6667 0.5H-5.66663V34.5H39.6667V0.5Z" fill="white"/>
</mask>
<g mask="url(#mask16_5_1617)">
<path d="M16.8963 5.74744L34.1823 17.794L16.6612 29.076L-0.27063 17.5605L16.8963 5.74744Z" fill="black"/>
<path fill-rule="evenodd" clip-rule="evenodd" d="M16.8963 5.74744L34.1823 17.794L16.6612 29.076L-0.27063 17.5605L16.8963 5.74744Z" fill="#FFD221"/>
<path fill-rule="evenodd" clip-rule="evenodd" d="M16.8963 5.74744L34.1823 17.794L16.6612 29.076L-0.27063 17.5605L16.8963 5.74744Z" fill="url(#paint0_linear_5_1617)"/>
<path d="M17.0001 24.8667C20.9121 24.8667 24.0834 21.6954 24.0834 17.7834C24.0834 13.8714 20.9121 10.7001 17.0001 10.7001C13.0881 10.7001 9.91675 13.8714 9.91675 17.7834C9.91675 21.6954 13.0881 24.8667 17.0001 24.8667Z" fill="#2E42A5"/>
<mask id="mask17_5_1617" style="mask-type:alpha" maskUnits="userSpaceOnUse" x="9" y="10" width="16" height="15">
<path d="M17.0001 24.8667C20.9121 24.8667 24.0834 21.6954 24.0834 17.7834C24.0834 13.8714 20.9121 10.7001 17.0001 10.7001C13.0881 10.7001 9.91675 13.8714 9.91675 17.7834C9.91675 21.6954 13.0881 24.8667 17.0001 24.8667Z" fill="white"/>
</mask>
<g mask="url(#mask17_5_1617)">
<path d="M14.7051 21.1409L14.3887 21.3072L14.4491 20.9549L14.1931 20.7054L14.5469 20.6539L14.7051 20.3334L14.8633 20.6539L15.2171 20.7054L14.9611 20.9549L15.0215 21.3072L14.7051 21.1409Z" fill="#F7FCFF"/>
</g>
<mask id="mask18_5_1617" style="mask-type:alpha" maskUnits="userSpaceOnUse" x="9" y="10" width="16" height="15">
<path d="M17.0001 24.8667C20.9121 24.8667 24.0834 21.6954 24.0834 17.7834C24.0834 13.8714 20.9121 10.7001 17.0001 10.7001C13.0881 10.7001 9.91675 13.8714 9.91675 17.7834C9.91675 21.6954 13.0881 24.8667 17.0001 24.8667Z" fill="white"/>
</mask>
<g mask="url(#mask18_5_1617)">
<path d="M17.5385 21.1409L17.222 21.3072L17.2825 20.9549L17.0265 20.7054L17.3803 20.6539L17.5385 20.3334L17.6967 20.6539L18.0505 20.7054L17.7945 20.9549L17.8549 21.3072L17.5385 21.1409Z" fill="#F7FCFF"/>
</g>
<mask id="mask19_5_1617" style="mask-type:alpha" maskUnits="userSpaceOnUse" x="9" y="10" width="16" height="15">
<path d="M17.0001 24.8667C20.9121 24.8667 24.0834 21.6954 24.0834 17.7834C24.0834 13.8714 20.9121 10.7001 17.0001 10.7001C13.0881 10.7001 9.91675 13.8714 9.91675 17.7834C9.91675 21.6954 13.0881 24.8667 17.0001 24.8667Z" fill="white"/>
</mask>
<g mask="url(#mask19_5_1617)">
<path d="M17.5385 22.8409L17.222 23.0073L17.2825 22.655L17.0265 22.4054L17.3803 22.354L17.5385 22.0334L17.6967 22.354L18.0505 22.4054L17.7945 22.655L17.8549 23.0073L17.5385 22.8409Z" fill="#F7FCFF"/>
</g>
<mask id="mask20_5_1617" style="mask-type:alpha" maskUnits="userSpaceOnUse" x="9" y="10" width="16" height="15">
<path d="M17.0001 24.8667C20.9121 24.8667 24.0834 21.6954 24.0834 17.7834C24.0834 13.8714 20.9121 10.7001 17.0001 10.7001C13.0881 10.7001 9.91675 13.8714 9.91675 17.7834C9.91675 21.6954 13.0881 24.8667 17.0001 24.8667Z" fill="white"/>
</mask>
<g mask="url(#mask20_5_1617)">
<path d="M16.1217 16.8909L15.8053 17.0572L15.8657 16.7049L15.6097 16.4554L15.9635 16.4039L16.1217 16.0834L16.2799 16.4039L16.6337 16.4554L16.3777 16.7049L16.4382 17.0572L16.1217 16.8909Z" fill="#F7FCFF"/>
</g>
<mask id="mask21_5_1617" style="mask-type:alpha" maskUnits="userSpaceOnUse" x="9" y="10" width="16" height="15">
<path d="M17.0001 24.8667C20.9121 24.8667 24.0834 21.6954 24.0834 17.7834C24.0834 13.8714 20.9121 10.7001 17.0001 10.7001C13.0881 10.7001 9.91675 13.8714 9.91675 17.7834C9.91675 21.6954 13.0881 24.8667 17.0001 24.8667Z" fill="white"/>
</mask>
<g mask="url(#mask21_5_1617)">
<path d="M16.1217 19.7242L15.8053 19.8906L15.8657 19.5383L15.6097 19.2887L15.9635 19.2373L16.1217 18.9167L16.2799 19.2373L16.6337 19.2887L16.3777 19.5383L16.4382 19.8906L16.1217 19.7242Z" fill="#F7FCFF"/>
</g>
<mask id="mask22_5_1617" style="mask-type:alpha" maskUnits="userSpaceOnUse" x="9" y="10" width="16" height="15">
<path d="M17.0001 24.8667C20.9121 24.8667 24.0834 21.6954 24.0834 17.7834C24.0834 13.8714 20.9121 10.7001 17.0001 10.7001C13.0881 10.7001 9.91675 13.8714 9.91675 17.7834C9.91675 21.6954 13.0881 24.8667 17.0001 24.8667Z" fill="white"/>
</mask>
<g mask="url(#mask22_5_1617)">
<path d="M14.1383 18.3075L13.8219 18.4739L13.8823 18.1215L13.6263 17.872L13.9801 17.8206L14.1383 17.5L14.2965 17.8206L14.6503 17.872L14.3943 18.1215L14.4548 18.4739L14.1383 18.3075Z" fill="#F7FCFF"/>
</g>
<mask id="mask23_5_1617" style="mask-type:alpha" maskUnits="userSpaceOnUse" x="9" y="10" width="16" height="15">
<path d="M17.0001 24.8667C20.9121 24.8667 24.0834 21.6954 24.0834 17.7834C24.0834 13.8714 20.9121 10.7001 17.0001 10.7001C13.0881 10.7001 9.91675 13.8714 9.91675 17.7834C9.91675 21.6954 13.0881 24.8667 17.0001 24.8667Z" fill="white"/>
</mask>
<g mask="url(#mask23_5_1617)">
<path d="M12.1551 19.4409L11.8386 19.6073L11.8991 19.2549L11.6431 19.0054L11.9968 18.954L12.1551 18.6334L12.3133 18.954L12.667 19.0054L12.411 19.2549L12.4715 19.6073L12.1551 19.4409Z" fill="#F7FCFF"/>
</g>
<mask id="mask24_5_1617" style="mask-type:alpha" maskUnits="userSpaceOnUse" x="9" y="10" width="16" height="15">
<path d="M17.0001 24.8667C20.9121 24.8667 24.0834 21.6954 24.0834 17.7834C24.0834 13.8714 20.9121 10.7001 17.0001 10.7001C13.0881 10.7001 9.91675 13.8714 9.91675 17.7834C9.91675 21.6954 13.0881 24.8667 17.0001 24.8667Z" fill="white"/>
</mask>
<g mask="url(#mask24_5_1617)">
<path d="M18.6718 14.6243L18.3554 14.7906L18.4158 14.4383L18.1598 14.1888L18.5136 14.1373L18.6718 13.8168L18.83 14.1373L19.1838 14.1888L18.9278 14.4383L18.9882 14.7906L18.6718 14.6243Z" fill="#F7FCFF"/>
</g>
<mask id="mask25_5_1617" style="mask-type:alpha" maskUnits="userSpaceOnUse" x="9" y="10" width="16" height="15">
<path d="M17.0001 24.8667C20.9121 24.8667 24.0834 21.6954 24.0834 17.7834C24.0834 13.8714 20.9121 10.7001 17.0001 10.7001C13.0881 10.7001 9.91675 13.8714 9.91675 17.7834C9.91675 21.6954 13.0881 24.8667 17.0001 24.8667Z" fill="white"/>
</mask>
<g mask="url(#mask25_5_1617)">
<path d="M8.39355 16.0793L8.6066 13.254C15.4037 13.7666 20.7685 16.0014 24.6334 19.9769L22.6019 21.952C19.252 18.5063 14.5384 16.5427 8.39355 16.0793Z" fill="#F7FCFF"/>
</g>
<mask id="mask26_5_1617" style="mask-type:alpha" maskUnits="userSpaceOnUse" x="9" y="10" width="16" height="15">
<path d="M17.0001 24.8667C20.9121 24.8667 24.0834 21.6954 24.0834 17.7834C24.0834 13.8714 20.9121 10.7001 17.0001 10.7001C13.0881 10.7001 9.91675 13.8714 9.91675 17.7834C9.91675 21.6954 13.0881 24.8667 17.0001 24.8667Z" fill="white"/>
</mask>
<g mask="url(#mask26_5_1617)">
<path d="M11.7434 15.5206L11.8164 14.816C16.1981 15.2699 19.9564 16.9482 23.08 19.8473L22.5981 20.3665C19.5882 17.5729 15.9737 15.9588 11.7434 15.5206Z" fill="#009933"/>
</g>
</g>
</g>
</g>
<mask id="mask27_5_1617" style="mask-type:alpha" maskUnits="userSpaceOnUse" x="-6" y="0" width="46" height="35">
<path d="M37.9667 0.5H-3.96663C-4.90551 0.5 -5.66663 1.26112 -5.66663 2.2V32.8C-5.66663 33.7389 -4.90551 34.5 -3.96663 34.5H37.9667C38.9056 34.5 39.6667 33.7389 39.6667 32.8V2.2C39.6667 1.26112 38.9056 0.5 37.9667 0.5Z" fill="white"/>
</mask>
<g mask="url(#mask27_5_1617)">
<path d="M37.2584 1.20837H-3.25825C-4.19714 1.20837 -4.95825 1.96949 -4.95825 2.90837V32.0917C-4.95825 33.0306 -4.19714 33.7917 -3.25825 33.7917H37.2584C38.1973 33.7917 38.9584 33.0306 38.9584 32.0917V2.90837C38.9584 1.96949 38.1973 1.20837 37.2584 1.20837Z" stroke="black" stroke-opacity="0.1"/>
</g>
</g>
<defs>
<linearGradient id="paint0_linear_5_1617" x1="16.9558" y1="29.076" x2="16.9558" y2="5.74744" gradientUnits="userSpaceOnUse">
<stop stop-color="#FFC600"/>
<stop offset="1" stop-color="#FFDE42"/>
</linearGradient>
</defs>
</svg>
