<svg width="73" height="73" viewBox="0 0 73 73" fill="none" xmlns="http://www.w3.org/2000/svg">
<g clip-path="url(#clip0_9_2495)">
<path d="M61.9876 67.6468C56.5787 67.6468 52.1987 66.0068 52.1987 63.976V68.8704C52.1987 70.9012 56.5787 72.5413 61.9876 72.5413C67.3959 72.5413 71.7766 70.9012 71.7766 68.8704V63.976C71.7766 66.0068 67.3959 67.6468 61.9876 67.6468Z" fill="#FF9811"/>
<path d="M61.9876 57.8578C56.5787 57.8578 52.1987 56.2177 52.1987 54.1869V59.0814C52.1987 61.1122 56.5787 62.7522 61.9876 62.7522C67.3959 62.7522 71.7766 61.1122 71.7766 59.0814V54.1869C71.7766 56.2177 67.3959 57.8578 61.9876 57.8578Z" fill="#FFA733"/>
<path d="M61.9876 52.9633C56.5787 52.9633 52.1987 51.3233 52.1987 49.2925V54.187C52.1987 56.2178 56.5787 57.8578 61.9876 57.8578C67.3959 57.8578 71.7766 56.2178 71.7766 54.187V49.2925C71.7766 51.3233 67.3959 52.9633 61.9876 52.9633Z" fill="#FFB655"/>
<path d="M61.9876 62.7523C56.5787 62.7523 52.1987 61.1122 52.1987 59.0814V63.9759C52.1987 66.0067 56.5787 67.6468 61.9876 67.6468C67.3959 67.6468 71.7766 66.0067 71.7766 63.9759V59.0814C71.7766 61.1122 67.3959 62.7523 61.9876 62.7523Z" fill="#FFB655"/>
<path d="M61.9876 38.2799C56.5787 38.2799 52.1987 36.6398 52.1987 34.609V39.5035C52.1987 41.5343 56.5787 43.1744 61.9876 43.1744C67.3959 43.1744 71.7766 41.5343 71.7766 39.5035V34.609C71.7766 36.6398 67.3959 38.2799 61.9876 38.2799Z" fill="#FFC477"/>
<path d="M61.9876 48.0688C56.5787 48.0688 52.1987 46.4288 52.1987 44.3979V49.2924C52.1987 51.3232 56.5787 52.9633 61.9876 52.9633C67.3959 52.9633 71.7766 51.3232 71.7766 49.2924V44.3979C71.7766 46.4288 67.3959 48.0688 61.9876 48.0688Z" fill="#FFC477"/>
<path d="M61.9876 43.1744C56.5787 43.1744 52.1987 41.5343 52.1987 39.5035V44.398C52.1987 46.4288 56.5787 48.0689 61.9876 48.0689C67.3959 48.0689 71.7766 46.4288 71.7766 44.398V39.5035C71.7766 41.5343 67.3959 43.1744 61.9876 43.1744Z" fill="#FFB655"/>
<path d="M61.9876 33.3853C56.5817 33.3853 52.1987 31.7417 52.1987 29.7145V34.609C52.1987 36.6398 56.5787 38.2798 61.9876 38.2798C67.3959 38.2798 71.7766 36.6398 71.7766 34.609V29.7145C71.7766 31.7417 67.3936 33.3853 61.9876 33.3853Z" fill="#FFB655"/>
<path d="M10.5955 72.5413C16.0039 72.5413 20.3845 70.9012 20.3845 68.8704V63.976C20.3845 66.0068 16.0039 67.6468 10.5955 67.6468C5.18664 67.6468 0.80658 66.0068 0.80658 63.976V68.8704C0.80658 70.9012 5.18664 72.5413 10.5955 72.5413Z" fill="#FF6243"/>
<path d="M36.2916 62.7523C30.8827 62.7523 26.5026 61.1122 26.5026 59.0814V63.9759C26.5026 66.0067 30.8827 67.6468 36.2916 67.6468C41.6999 67.6468 46.0806 66.0067 46.0806 63.9759V59.0814C46.0806 61.1122 41.6999 62.7523 36.2916 62.7523Z" fill="#FFA733"/>
<path d="M36.2916 57.8578C30.8827 57.8578 26.5026 56.2177 26.5026 54.1869V59.0814C26.5026 61.1122 30.8827 62.7522 36.2916 62.7522C41.6999 62.7522 46.0806 61.1122 46.0806 59.0814V54.1869C46.0806 56.2177 41.6999 57.8578 36.2916 57.8578Z" fill="#FF9811"/>
<path d="M36.2916 48.0688C30.8857 48.0688 26.5026 46.4252 26.5026 44.3979V49.2924C26.5026 51.3232 30.8827 52.9633 36.2916 52.9633C41.6999 52.9633 46.0806 51.3232 46.0806 49.2924V44.3979C46.0806 46.4252 41.6975 48.0688 36.2916 48.0688Z" fill="#FFB655"/>
<path d="M36.2916 52.9633C30.8827 52.9633 26.5026 51.3233 26.5026 49.2925V54.187C26.5026 56.2178 30.8827 57.8578 36.2916 57.8578C41.6999 57.8578 46.0806 56.2178 46.0806 54.187V49.2925C46.0806 51.3233 41.6999 52.9633 36.2916 52.9633Z" fill="#FFA733"/>
<path d="M10.5955 67.6468C16.0039 67.6468 20.3845 66.0067 20.3845 63.9759V59.0814C20.3845 61.1122 16.0039 62.7523 10.5955 62.7523C5.18664 62.7523 0.80658 61.1122 0.80658 59.0814V63.9759C0.80658 66.0067 5.18664 67.6468 10.5955 67.6468Z" fill="#FF9478"/>
<path d="M10.5955 62.7522C16.0039 62.7522 20.3845 61.1122 20.3845 59.0814V54.1869C20.3845 56.2141 16.0015 57.8578 10.5955 57.8578C5.18963 57.8578 0.80658 56.2141 0.80658 54.1869V59.0814C0.80658 61.1122 5.18664 62.7522 10.5955 62.7522Z" fill="#FF7956"/>
<path d="M36.2916 67.6468C30.8827 67.6468 26.5026 66.0068 26.5026 63.976V68.8704C26.5026 70.9012 30.8827 72.5413 36.2916 72.5413C41.6999 72.5413 46.0806 70.9012 46.0806 68.8704V63.976C46.0806 66.0068 41.6999 67.6468 36.2916 67.6468Z" fill="#FF9811"/>
<path d="M20.3845 54.187C20.3845 52.1598 16.0015 50.5161 10.5955 50.5161C5.18903 50.5161 0.80658 52.1598 0.80658 54.187C0.80658 56.2142 5.18903 57.8578 10.5955 57.8578C16.0015 57.8578 20.3845 56.2142 20.3845 54.187Z" fill="#FF9478"/>
<path d="M46.0806 44.3979C46.0806 42.3707 41.6975 40.7271 36.2916 40.7271C30.8851 40.7271 26.5026 42.3707 26.5026 44.3979C26.5026 46.4251 30.8851 48.0688 36.2916 48.0688C41.6975 48.0688 46.0806 46.4251 46.0806 44.3979Z" fill="#FFA733"/>
<path d="M71.7766 29.7146C71.7766 27.6873 67.3936 26.0437 61.9876 26.0437C56.5811 26.0437 52.1987 27.6873 52.1987 29.7146C52.1987 31.7418 56.5811 33.3854 61.9876 33.3854C67.3936 33.3854 71.7766 31.7418 71.7766 29.7146Z" fill="#FFA733"/>
<path d="M59.5404 0.347656V2.7949H68.8227L45.5739 26.0437H19.9245L0 43.4767L1.61257 45.3193L20.8446 28.4909H46.5872L70.553 4.52517V13.8075H73.0002V0.347656H59.5404Z" fill="#5EAC24"/>
</g>
<defs>
<clipPath id="clip0_9_2495">
<rect width="73" height="73" fill="white"/>
</clipPath>
</defs>
</svg>
