<svg width="260" height="64" viewBox="0 0 260 64" fill="none" xmlns="http://www.w3.org/2000/svg">
<rect x="18" y="20" width="28" height="24" rx="8" fill="#0F60FF"/>
<path d="M33.4242 24H40V28.4438H38.7678C36.6272 28.4438 35.1659 28.1107 34.3839 27.4445C33.7441 26.8959 33.4242 26.0103 33.4242 24.7877V24ZM25 30.3744C25 26.8539 27.8539 24 31.3744 24V30.4423H33.1256C34.7824 30.4423 36.1256 31.7855 36.1256 33.4423V33.5107H31.3744V33.6021C31.3744 37.1226 28.5205 39.9765 25 39.9765V30.3744ZM33.4123 38.8597C33.4123 37.2373 34.3602 36.1362 36.2559 35.5562C36.9826 35.3368 37.9186 35.227 39.064 35.227H40V40H33.4123V38.8597Z" fill="white"/>
<path d="M59.344 40.22C58.838 40.22 58.3173 40.176 57.782 40.088C57.2467 40.0073 56.8543 39.934 56.605 39.868L56.671 36.931C56.8837 36.975 57.1257 37.0337 57.397 37.107C57.6757 37.1803 57.9837 37.217 58.321 37.217C59.0617 37.217 59.5603 37.0227 59.817 36.634C60.0737 36.238 60.202 35.6 60.202 34.72V24.094H63.414V35.578C63.414 36.59 63.304 37.4407 63.084 38.13C62.864 38.8193 62.4607 39.34 61.874 39.692C61.2873 40.044 60.444 40.22 59.344 40.22ZM71.1876 40.22C70.0729 40.22 69.1012 39.9817 68.2726 39.505C67.4512 39.0283 66.8132 38.3537 66.3586 37.481C65.9112 36.6083 65.6876 35.5743 65.6876 34.379C65.6876 33.1837 65.9112 32.1387 66.3586 31.244C66.8132 30.3493 67.4512 29.6527 68.2726 29.154C69.1012 28.6553 70.0766 28.406 71.1986 28.406C72.3206 28.406 73.2922 28.6517 74.1136 29.143C74.9349 29.627 75.5692 30.3163 76.0166 31.211C76.4639 32.1057 76.6876 33.1617 76.6876 34.379C76.6876 35.523 76.4676 36.535 76.0276 37.415C75.5949 38.2877 74.9679 38.9733 74.1466 39.472C73.3326 39.9707 72.3462 40.22 71.1876 40.22ZM71.1986 37.833C71.7632 37.833 72.2179 37.668 72.5626 37.338C72.9072 37.008 73.1566 36.5753 73.3106 36.04C73.4646 35.4973 73.5416 34.907 73.5416 34.269C73.5416 33.6677 73.4719 33.0993 73.3326 32.564C73.1932 32.0287 72.9512 31.596 72.6066 31.266C72.2619 30.936 71.7926 30.771 71.1986 30.771C70.6339 30.771 70.1756 30.9287 69.8236 31.244C69.4789 31.552 69.2259 31.9737 69.0646 32.509C68.9032 33.037 68.8226 33.6237 68.8226 34.269C68.8226 34.863 68.8959 35.435 69.0426 35.985C69.1892 36.5277 69.4349 36.9713 69.7796 37.316C70.1242 37.6607 70.5972 37.833 71.1986 37.833ZM78.9871 40V24.094H84.7511C86.8337 24.094 88.3774 24.4533 89.3821 25.172C90.3941 25.8833 90.9001 26.9137 90.9001 28.263C90.9001 29.055 90.6984 29.7443 90.2951 30.331C89.8917 30.9103 89.1731 31.4163 88.1391 31.849C88.8064 32.0177 89.3454 32.245 89.7561 32.531C90.1667 32.817 90.4821 33.136 90.7021 33.488C90.9221 33.8327 91.0724 34.1957 91.1531 34.577C91.2337 34.951 91.2741 35.3213 91.2741 35.688C91.2741 37.1547 90.7754 38.24 89.7781 38.944C88.7807 39.648 87.1931 40 85.0151 40H78.9871ZM82.1881 37.514H85.0811C86.0491 37.514 86.7787 37.3197 87.2701 36.931C87.7687 36.5423 88.0181 36.0217 88.0181 35.369C88.0181 34.8997 87.8971 34.5073 87.6551 34.192C87.4131 33.8693 87.0831 33.6273 86.6651 33.466C86.2544 33.3047 85.7851 33.224 85.2571 33.224H82.1881V37.514ZM82.1881 30.672H85.2571C85.5871 30.672 85.9024 30.6353 86.2031 30.562C86.5111 30.4813 86.7824 30.3603 87.0171 30.199C87.2591 30.0377 87.4497 29.8323 87.5891 29.583C87.7284 29.3263 87.7981 29.0257 87.7981 28.681C87.7981 27.9917 87.5377 27.471 87.0171 27.119C86.5037 26.7597 85.8437 26.58 85.0371 26.58H82.1881V30.672ZM93.6736 40V28.626H96.7426V40H93.6736ZM93.6406 26.998V24.105H96.7646V26.998H93.6406ZM99.5703 40V28.626H102.727V30.232C102.903 29.9533 103.131 29.6857 103.409 29.429C103.695 29.165 104.055 28.9487 104.487 28.78C104.92 28.6113 105.433 28.527 106.027 28.527C106.724 28.527 107.373 28.6627 107.974 28.934C108.583 29.2053 109.074 29.6343 109.448 30.221C109.822 30.8003 110.009 31.5593 110.009 32.498V40H106.797V32.894C106.797 32.278 106.614 31.816 106.247 31.508C105.881 31.2 105.433 31.046 104.905 31.046C104.553 31.046 104.212 31.1083 103.882 31.233C103.56 31.3577 103.296 31.5447 103.09 31.794C102.885 32.0433 102.782 32.3513 102.782 32.718V40H99.5703ZM117.08 40.22C116.288 40.22 115.525 40.0917 114.792 39.835C114.066 39.571 113.446 39.1603 112.933 38.603C112.427 38.0383 112.108 37.3087 111.976 36.414H114.748C114.851 36.8173 115.027 37.1363 115.276 37.371C115.533 37.6057 115.822 37.7743 116.145 37.877C116.468 37.9723 116.776 38.02 117.069 38.02C117.685 38.02 118.18 37.9247 118.554 37.734C118.935 37.536 119.126 37.2353 119.126 36.832C119.126 36.524 119.012 36.2783 118.785 36.095C118.565 35.9117 118.198 35.7723 117.685 35.677L115.683 35.259C114.678 35.0463 113.868 34.687 113.252 34.181C112.643 33.6677 112.335 32.9417 112.328 32.003C112.321 31.321 112.497 30.7087 112.856 30.166C113.223 29.6233 113.762 29.1943 114.473 28.879C115.192 28.5637 116.068 28.406 117.102 28.406C118.503 28.406 119.621 28.714 120.457 29.33C121.3 29.946 121.729 30.815 121.744 31.937H119.06C118.979 31.497 118.759 31.1597 118.4 30.925C118.048 30.683 117.601 30.562 117.058 30.562C116.508 30.562 116.053 30.661 115.694 30.859C115.335 31.057 115.155 31.3577 115.155 31.761C115.155 32.0617 115.302 32.3 115.595 32.476C115.888 32.6447 116.343 32.7913 116.959 32.916L118.807 33.334C119.445 33.488 119.962 33.7007 120.358 33.972C120.761 34.236 121.073 34.5257 121.293 34.841C121.513 35.1563 121.663 35.4753 121.744 35.798C121.832 36.1133 121.876 36.3993 121.876 36.656C121.876 37.4113 121.674 38.0567 121.271 38.592C120.868 39.12 120.307 39.5233 119.588 39.802C118.869 40.0807 118.033 40.22 117.08 40.22Z" fill="#23272E"/>
</svg>
