<svg width="34" height="35" viewBox="0 0 34 35" fill="none" xmlns="http://www.w3.org/2000/svg">
<mask id="mask0_5_1586" style="mask-type:alpha" maskUnits="userSpaceOnUse" x="0" y="0" width="34" height="35">
<path d="M17 34.5C26.3888 34.5 34 26.8888 34 17.5C34 8.11116 26.3888 0.5 17 0.5C7.61116 0.5 0 8.11116 0 17.5C0 26.8888 7.61116 34.5 17 34.5Z" fill="white"/>
</mask>
<g mask="url(#mask0_5_1586)">
<mask id="mask1_5_1586" style="mask-type:alpha" maskUnits="userSpaceOnUse" x="-6" y="0" width="46" height="35">
<path d="M39.1 0.5H-5.94995V34.5H39.1V0.5Z" fill="white"/>
</mask>
<g mask="url(#mask1_5_1586)">
<path fill-rule="evenodd" clip-rule="evenodd" d="M-5.94995 0.5H39.1V34.5H-5.94995V0.5Z" fill="#F7FCFF"/>
<path d="M39.1 21.2778H-5.94995V24.1112H39.1V21.2778Z" fill="#E31D1C"/>
<path d="M39.1 26.4722H-5.94995V29.3055H39.1V26.4722Z" fill="#E31D1C"/>
<path d="M39.1 10.8889H-5.94995V13.7222H39.1V10.8889Z" fill="#E31D1C"/>
<path d="M39.1 31.6666H-5.94995V34.5H39.1V31.6666Z" fill="#E31D1C"/>
<path d="M39.1 16.0834H-5.94995V18.9167H39.1V16.0834Z" fill="#E31D1C"/>
<path d="M39.1 0.5H-5.94995V3.33333H39.1V0.5Z" fill="#E31D1C"/>
<path d="M39.1 5.69446H-5.94995V8.52779H39.1V5.69446Z" fill="#E31D1C"/>
<path d="M22.2063 0.5H-5.94995V18.9167H22.2063V0.5Z" fill="#2E42A5"/>
<path fill-rule="evenodd" clip-rule="evenodd" d="M-3.52712 13.5744L-3.06089 14.6214H-2.05029L-2.84434 15.4345L-2.53693 16.7174L-3.52569 15.9965L-4.5476 16.7174L-4.20259 15.4345L-5.11023 14.6214H-3.92473L-3.52712 13.5744ZM2.10413 13.5744L2.57035 14.6214H3.58096L2.7869 15.4345L3.09432 16.7174L2.10556 15.9965L1.08365 16.7174L1.42866 15.4345L0.52102 14.6214H1.70652L2.10413 13.5744ZM7.73538 13.5744L8.2016 14.6214H9.21221L8.41815 15.4345L8.72557 16.7174L7.73681 15.9965L6.7149 16.7174L7.05991 15.4345L6.15227 14.6214H7.33777L7.73538 13.5744ZM13.3666 13.5744L13.8329 14.6214H14.8435L14.0494 15.4345L14.3568 16.7174L13.3681 15.9965L12.3462 16.7174L12.6912 15.4345L11.7835 14.6214H12.969L13.3666 13.5744ZM18.9979 13.5744L19.4641 14.6214H20.4747L19.6807 15.4345L19.9881 16.7174L18.9993 15.9965L17.9774 16.7174L18.3224 15.4345L17.4148 14.6214H18.6003L18.9979 13.5744ZM-0.711496 10.7411L-0.245269 11.7881H0.765337L-0.0287199 12.6011L0.278692 13.8841L-0.710068 13.1632L-1.73197 13.8841L-1.38697 12.6011L-2.2946 11.7881H-1.1091L-0.711496 10.7411ZM4.91975 10.7411L5.38598 11.7881H6.39659L5.60253 12.6011L5.90994 13.8841L4.92118 13.1632L3.89928 13.8841L4.24428 12.6011L3.33664 11.7881H4.52215L4.91975 10.7411ZM10.551 10.7411L11.0172 11.7881H12.0278L11.2338 12.6011L11.5412 13.8841L10.5524 13.1632L9.53053 13.8841L9.87553 12.6011L8.96789 11.7881H10.1534L10.551 10.7411ZM16.1823 10.7411L16.6485 11.7881H17.6591L16.865 12.6011L17.1724 13.8841L16.1837 13.1632L15.1618 13.8841L15.5068 12.6011L14.5991 11.7881H15.7846L16.1823 10.7411ZM7.73538 7.90776L8.2016 8.95477H9.21221L8.41815 9.76781L8.72557 11.0508L7.73681 10.3298L6.7149 11.0508L7.05991 9.76781L6.15227 8.95477H7.33777L7.73538 7.90776ZM13.3666 7.90776L13.8329 8.95477H14.8435L14.0494 9.76781L14.3568 11.0508L13.3681 10.3298L12.3462 11.0508L12.6912 9.76781L11.7835 8.95477H12.969L13.3666 7.90776ZM-3.52712 7.90776L-3.06089 8.95477H-2.05029L-2.84434 9.76781L-2.53693 11.0508L-3.52569 10.3298L-4.5476 11.0508L-4.20259 9.76781L-5.11023 8.95477H-3.92473L-3.52712 7.90776ZM2.10413 7.90776L2.57035 8.95477H3.58096L2.7869 9.76781L3.09432 11.0508L2.10556 10.3298L1.08365 11.0508L1.42866 9.76781L0.52102 8.95477H1.70652L2.10413 7.90776ZM18.9979 7.90776L19.4641 8.95477H20.4747L19.6807 9.76781L19.9881 11.0508L18.9993 10.3298L17.9774 11.0508L18.3224 9.76781L17.4148 8.95477H18.6003L18.9979 7.90776ZM-0.711496 5.07442L-0.245269 6.12143H0.765337L-0.0287199 6.93448L0.278692 8.21742L-0.710068 7.4965L-1.73197 8.21742L-1.38697 6.93448L-2.2946 6.12143H-1.1091L-0.711496 5.07442ZM4.91975 5.07442L5.38598 6.12143H6.39659L5.60253 6.93448L5.90994 8.21742L4.92118 7.4965L3.89928 8.21742L4.24428 6.93448L3.33664 6.12143H4.52215L4.91975 5.07442ZM10.551 5.07442L11.0172 6.12143H12.0278L11.2338 6.93448L11.5412 8.21742L10.5524 7.4965L9.53053 8.21742L9.87553 6.93448L8.96789 6.12143H10.1534L10.551 5.07442ZM16.1823 5.07442L16.6485 6.12143H17.6591L16.865 6.93448L17.1724 8.21742L16.1837 7.4965L15.1618 8.21742L15.5068 6.93448L14.5991 6.12143H15.7846L16.1823 5.07442ZM-3.52712 2.24109L-3.06089 3.2881H-2.05029L-2.84434 4.10114L-2.53693 5.38409L-3.52569 4.66317L-4.5476 5.38409L-4.20259 4.10114L-5.11023 3.2881H-3.92473L-3.52712 2.24109ZM2.10413 2.24109L2.57035 3.2881H3.58096L2.7869 4.10114L3.09432 5.38409L2.10556 4.66317L1.08365 5.38409L1.42866 4.10114L0.52102 3.2881H1.70652L2.10413 2.24109ZM7.73538 2.24109L8.2016 3.2881H9.21221L8.41815 4.10114L8.72557 5.38409L7.73681 4.66317L6.7149 5.38409L7.05991 4.10114L6.15227 3.2881H7.33777L7.73538 2.24109ZM13.3666 2.24109L13.8329 3.2881H14.8435L14.0494 4.10114L14.3568 5.38409L13.3681 4.66317L12.3462 5.38409L12.6912 4.10114L11.7835 3.2881H12.969L13.3666 2.24109ZM18.9979 2.24109L19.4641 3.2881H20.4747L19.6807 4.10114L19.9881 5.38409L18.9993 4.66317L17.9774 5.38409L18.3224 4.10114L17.4148 3.2881H18.6003L18.9979 2.24109Z" fill="#F7FCFF"/>
</g>
</g>
</svg>
