<svg width="43" height="43" viewBox="0 0 43 43" fill="none" xmlns="http://www.w3.org/2000/svg">
<g clip-path="url(#clip0_9_2529)">
<path d="M35.2133 0H32.6178V43H35.2133C39.496 43 43 39.496 43 35.2133V7.7867C43 3.504 39.496 0 35.2133 0Z" fill="#EB931F"/>
<path d="M40.4045 7.78669V35.2132C40.4045 39.4959 36.9005 42.9999 32.6178 42.9999H7.7867C3.504 43 0 39.496 0 35.2133V7.78669C0 3.504 3.504 0 7.7867 0H32.6177C36.9004 0 40.4045 3.504 40.4045 7.78669Z" fill="#FFA937"/>
<path d="M17.3149 38.4144H10.9882C10.0326 38.4144 9.25781 37.6398 9.25781 36.684C9.25781 35.7284 10.0325 34.9536 10.9882 34.9536H16.2419L22.0915 23.1668C22.3836 22.5781 22.9841 22.2057 23.6415 22.2057H28.8951L34.7447 10.4189C35.1695 9.56279 36.2079 9.21333 37.0639 9.63821C37.92 10.063 38.2696 11.1014 37.8447 11.9574L31.518 24.7054C31.2259 25.2942 30.6254 25.6665 29.968 25.6665H24.7144L18.8648 37.4533C18.5727 38.0421 17.9721 38.4144 17.3149 38.4144Z" fill="white"/>
<path d="M15.2709 20.1292C16.2265 20.1292 17.0013 19.3546 17.0013 18.3988C17.0013 17.4431 16.2266 16.6684 15.2709 16.6684H12.7186L16.8615 6.99777C17.2378 6.11938 16.8307 5.10216 15.9522 4.72574C15.0741 4.34941 14.0567 4.75639 13.6802 5.63487L10.9881 11.9191L8.29606 5.63496C7.91973 4.75648 6.90242 4.34924 6.02403 4.72582C5.14564 5.10216 4.73857 6.11929 5.11482 6.99785L9.25768 16.6685H6.7054C5.74974 16.6685 4.97498 17.4432 4.97498 18.3989C4.97498 19.3546 5.74966 20.1293 6.7054 20.1293H9.25768V22.7248H6.7054C5.74974 22.7248 4.97498 23.4995 4.97498 24.4553C4.97498 25.411 5.74966 26.1857 6.7054 26.1857H9.25768V30.6279C9.25768 31.5835 10.0324 32.3583 10.9881 32.3583C11.9438 32.3583 12.7185 31.5836 12.7185 30.6279V26.1857H15.2708C16.2265 26.1857 17.0012 25.411 17.0012 24.4553C17.0012 23.4995 16.2265 22.7248 15.2708 22.7248H12.7185V20.1293L15.2709 20.1292Z" fill="white"/>
</g>
<defs>
<clipPath id="clip0_9_2529">
<rect width="43" height="43" fill="white"/>
</clipPath>
</defs>
</svg>
